<svg width="384" height="288" viewBox="0 0 384 288" fill="none" xmlns="http://www.w3.org/2000/svg">
<g clip-path="url(#clip0_82_1365)">
<path d="M355.685 0C355.687 11.4718 367.788 20.8048 382.862 21.0938L383.583 21.1009V266.433H383.58C368.173 266.433 355.683 275.881 355.683 287.536H27.8937C27.8936 275.882 15.4056 266.434 0 266.433L0 21.1C15.4053 21.0995 27.894 11.6537 27.896 0L355.685 0Z" fill="#0F2C56"></path>
<path d="M348.068 6.68115C348.07 17.7941 359.978 26.8025 374.669 26.8025L374.67 26.8017V260.732H374.668C359.976 260.732 348.067 269.742 348.067 280.856V280.857H35.5102V280.856C35.5101 269.743 23.6019 260.733 8.91211 260.732L8.91211 26.8017C23.6019 26.8011 35.5102 17.7937 35.5113 6.68115L348.068 6.68115Z" fill="#0F2C56"></path>
<mask id="mask0_82_1365" style="mask-type:luminance" maskUnits="userSpaceOnUse" x="8" y="6" width="367" height="275">
<path d="M348.068 6.68115C348.07 17.7941 359.978 26.8025 374.669 26.8025L374.67 26.8017V260.732H374.668C359.976 260.732 348.067 269.742 348.067 280.856V280.857H35.5102V280.856C35.5101 269.743 23.6019 260.733 8.91211 260.732L8.91211 26.8017C23.6019 26.8011 35.5102 17.7937 35.5113 6.68115L348.068 6.68115Z" fill="white"></path>
</mask>
<g mask="url(#mask0_82_1365)">
<path d="M348.068 6.68111L350.367 6.68097V4.85254H348.068V6.68111ZM374.669 26.8025V28.6311H375.621L376.294 28.0955L374.669 26.8025ZM374.67 26.8017H376.969V22.3871L373.043 25.5086L374.67 26.8017ZM374.67 260.732V262.561H376.969V260.732H374.67ZM348.067 280.857V282.685H350.366V280.857H348.067ZM35.5098 280.857H33.2104V282.685H35.5098V280.857ZM8.91171 260.732H6.6123V262.561H8.9115L8.91171 260.732ZM8.91171 26.8017L8.91159 24.9731H6.6123V26.8017H8.91171ZM35.5109 6.68111V4.85254H33.2117L33.2115 6.68097L35.5109 6.68111ZM348.068 6.68111L345.769 6.68125C345.77 18.889 358.818 28.6311 374.669 28.6311V26.8025V24.9739C361.138 24.9739 350.369 16.6991 350.367 6.68097L348.068 6.68111ZM374.669 26.8025L376.294 28.0955L376.295 28.0947L374.67 26.8017L373.043 25.5086L373.042 25.5095L374.669 26.8025ZM374.67 26.8017H372.37V260.732H374.67H376.969V26.8017H374.67ZM374.67 260.732V258.904H374.667V260.732V262.561H374.67V260.732ZM374.667 260.732V258.904C358.815 258.904 345.767 268.647 345.767 280.856H348.067H350.366C350.366 270.837 361.137 262.561 374.667 262.561V260.732ZM348.067 280.856H345.767V280.857H348.067H350.366V280.856H348.067ZM348.067 280.857V279.028H35.5098V280.857V282.685H348.067V280.857ZM35.5098 280.857H37.8092V280.856H35.5098H33.2104V280.857H35.5098ZM35.5098 280.856H37.8092C37.8091 268.647 24.762 258.905 8.91191 258.904L8.91171 260.732L8.9115 262.561C22.4411 262.562 33.2103 270.837 33.2104 280.856H35.5098ZM8.91171 260.732H11.2111L11.2111 26.8017H8.91171H6.6123L6.6123 260.732H8.91171ZM8.91171 26.8017L8.91181 28.6303C24.7617 28.6296 37.8091 18.8887 37.8103 6.68125L35.5109 6.68111L33.2115 6.68097C33.2105 16.6986 22.4413 24.9726 8.91159 24.9731L8.91171 26.8017ZM35.5109 6.68111V8.50968L348.068 8.50968V6.68111V4.85254L35.5109 4.85254V6.68111Z" fill="#C0DEEE"></path>
</g>
<mask id="mask1_82_1365" style="mask-type:luminance" maskUnits="userSpaceOnUse" x="17" y="13" width="350" height="262">
<path d="M341.311 13.3608C341.311 23.9608 352.671 32.5537 366.683 32.5537L366.685 32.5528V255.676H366.682C352.67 255.676 341.311 264.269 341.31 274.868H43.1939C43.1928 264.269 31.8357 255.677 17.8252 255.676L17.8252 32.5528C31.8368 32.5522 43.1947 23.9604 43.195 13.3608L341.311 13.3608Z" fill="white"></path>
</mask>
<g mask="url(#mask1_82_1365)">
<path d="M341.31 13.3608L343.61 13.3607V11.5322H341.31V13.3608ZM366.683 32.5537V34.3822H367.635L368.309 33.8466L366.683 32.5537ZM366.684 32.5528H368.984V28.1382L365.057 31.2598L366.684 32.5528ZM366.684 255.676V257.505H368.984V255.676H366.684ZM341.309 274.868V276.697H343.609V274.868H341.309ZM43.1935 274.868H40.8941L40.8942 276.697H43.1935V274.868ZM17.8248 255.676H15.5254V257.504L17.8246 257.505L17.8248 255.676ZM17.8248 32.5528L17.8247 30.7242L15.5254 30.7243V32.5528H17.8248ZM43.1945 13.3608V11.5322H40.8953L40.8951 13.3607L43.1945 13.3608ZM341.31 13.3608H339.011C339.011 25.0557 351.51 34.3822 366.683 34.3822V32.5537V30.7251C353.831 30.7251 343.61 22.8658 343.61 13.3607L341.31 13.3608ZM366.683 32.5537L368.309 33.8466L368.31 33.8457L366.684 32.5528L365.057 31.2598L365.056 31.2607L366.683 32.5537ZM366.684 32.5528H364.385V255.676H366.684H368.984V32.5528H366.684ZM366.684 255.676V253.848H366.682V255.676V257.505H366.684V255.676ZM366.682 255.676V253.848C351.509 253.848 339.011 263.174 339.01 274.868H341.309H343.609C343.61 265.363 353.831 257.505 366.682 257.505V255.676ZM341.309 274.868V273.04H43.1935V274.868V276.697H341.309V274.868ZM43.1935 274.868H45.4929C45.4916 263.174 32.9958 253.849 17.825 253.848L17.8248 255.676L17.8246 257.505C30.6748 257.506 40.8931 265.364 40.8941 274.868H43.1935ZM17.8248 255.676H20.1242L20.1242 32.5528H17.8248H15.5254L15.5254 255.676H17.8248ZM17.8248 32.5528L17.8249 34.3813C32.9967 34.3807 45.4937 25.0553 45.4939 13.3608H43.1945L40.8951 13.3607C40.895 22.8654 30.6761 30.7236 17.8247 30.7242L17.8248 32.5528ZM43.1945 13.3608V15.1894L341.31 15.1894V13.3608V11.5322L43.1945 11.5322V13.3608Z" fill="#C0DEEE"></path>
</g>
</g>
<defs>
<clipPath id="clip0_82_1365">
<rect width="384" height="288" fill="white"></rect>
</clipPath>
</defs>
</svg>